<?xml version="1.0" encoding="utf-8"?>
<svg version="1.1" id="Layer_1" x="0px" y="0px" viewBox="0 0 317.6 104.1" style="enable-background:new 0 0 317.6 104.1;" xmlns="http://www.w3.org/2000/svg" xmlns:bx="https://boxy-svg.com">
  <defs>
    <bx:grid x="0" y="0" width="88.317" height="81.392"/>
  </defs>
  <style type="text/css">
	.st0{fill:#4B79BB;}
	.st1{fill:#D24A43;}
	.st2{font-family:'Ekibastuz-Black';}
	.st3{font-size:39.7414px;}
	.st4{letter-spacing:1;}
	.st5{fill:#3EB5F1;}
</style>
  <g transform="matrix(1, 0, 0, 1, -21.099998, 0.156009)">
    <g>
      <polyline class="st0" points="54.9,64.6 55.9,65.9 56.9,67.3 57.8,68.6 58.8,70 59.8,71.3 60.8,72.7 61.7,74 62.7,75.4 61.9,75.4 &#10;&#9;&#9;&#9;61.1,75.4 60.3,75.4 59.5,75.4 58.7,75.4 58,75.4 57.2,75.4 56.4,75.5 56.4,76.4 56.4,77.4 56.4,78.3 56.4,79.3 56.4,80.2 &#10;&#9;&#9;&#9;56.4,81.2 56.4,82.1 56.4,83.1 58.4,82.9 60.3,82.7 62.3,82.5 64.3,82.4 66.3,82.2 68.3,82 70.3,81.8 72.3,81.7 73.1,79.8 &#10;&#9;&#9;&#9;73.9,78 74.7,76.1 75.4,74.2 76.2,72.4 77,70.5 77.8,68.7 78.6,66.8 77.7,66.5 76.8,66.2 75.9,65.9 74.9,65.6 74,65.4 73.1,65.1 &#10;&#9;&#9;&#9;72.2,64.8 71.3,64.5 71.1,65.2 70.8,66 70.6,66.7 70.3,67.5 70.1,68.2 69.9,69 69.6,69.8 69.4,70.5 68.4,69.2 67.4,67.8 &#10;&#9;&#9;&#9;66.5,66.5 65.5,65.2 64.5,63.8 63.6,62.5 62.6,61.2 61.6,59.8 &#9;&#9;"/>
      <path class="st0" d="M56.4,75.5c1.7,0.2,5.7,1.5,9.3,3c3.6,1.5,6.7,3,6.7,3.2s-3.3,0.8-6.8,1.1c-3.6,0.3-7.4,0.2-9.1,0.3"/>
      <path class="st0" d="M78.6,66.8c-0.4,1.7-1.5,5.2-2.9,8.5s-3.2,6.4-3.4,6.4c-0.2,0-0.5-3.5-0.8-7.3c-0.2-3.9-0.4-8.1-0.2-9.9"/>
    </g>
    <g>
      <polyline class="st0" points="63.1,55.9 64.6,55.3 66.2,54.8 67.8,54.3 69.3,53.8 70.9,53.3 72.5,52.8 74,52.3 75.6,51.8 &#10;&#9;&#9;&#9;75.4,52.6 75.1,53.3 74.9,54.1 74.7,54.8 74.4,55.6 74.2,56.4 73.9,57.1 73.7,57.9 74.6,58.2 75.5,58.5 76.4,58.8 77.3,59 &#10;&#9;&#9;&#9;78.2,59.3 79.1,59.6 80,59.9 80.9,60.2 81.4,58.3 81.8,56.3 82.3,54.4 82.7,52.4 83.2,50.5 83.6,48.5 84.1,46.6 84.5,44.6 &#10;&#9;&#9;&#9;83,43.3 81.5,42 80,40.7 78.4,39.4 76.9,38 75.4,36.7 73.9,35.4 72.3,34.1 71.8,34.8 71.2,35.6 70.7,36.4 70.1,37.2 69.6,37.9 &#10;&#9;&#9;&#9;69,38.7 68.5,39.5 67.9,40.3 68.5,40.7 69.2,41.2 69.8,41.7 70.5,42.1 71.1,42.6 71.7,43 72.4,43.5 73,44 71.5,44.5 70,44.9 &#10;&#9;&#9;&#9;68.5,45.4 67,45.9 65.5,46.4 63.9,46.9 62.4,47.4 60.9,47.9 &#9;&#9;"/>
      <path class="st0" d="M73.7,57.9c0.7-1.6,3.2-5,5.7-7.9c2.5-2.9,4.9-5.4,5.1-5.4s-0.2,3.4-1.1,6.8c-0.8,3.5-2.1,7.1-2.5,8.8"/>
      <path class="st0" d="M72.3,34.1c1.4,0.9,4.5,3,7.2,5.4c2.7,2.4,5.1,5,5,5.2c-0.1,0.2-3.5-0.6-7.2-1.5c-3.7-1-7.9-2.2-9.4-2.9"/>
    </g>
    <g>
      <polyline class="st0" points="56.9,44.8 56.9,43.2 56.9,41.5 56.9,39.9 56.9,38.2 56.9,36.6 57,34.9 57,33.3 57,31.6 57.6,32.1 &#10;&#9;&#9;&#9;58.3,32.6 58.9,33 59.5,33.5 60.2,33.9 60.8,34.4 61.5,34.9 62.1,35.3 62.7,34.6 63.2,33.8 63.8,33 64.4,32.2 64.9,31.5 &#10;&#9;&#9;&#9;65.5,30.7 66,29.9 66.6,29.2 64.9,28.1 63.2,27.1 61.5,26.1 59.8,25 58,24 56.3,23 54.6,22 52.9,20.9 51.2,22 49.4,23 47.7,24.1 &#10;&#9;&#9;&#9;46,25.1 44.3,26.1 42.5,27.2 40.8,28.2 39.1,29.3 39.6,30 40.2,30.8 40.8,31.6 41.3,32.3 41.9,33.1 42.5,33.9 43,34.6 43.6,35.4 &#10;&#9;&#9;&#9;44.2,34.9 44.9,34.5 45.5,34 46.1,33.5 46.8,33.1 47.4,32.6 48.1,32.1 48.7,31.7 48.7,33.3 48.7,34.9 48.7,36.6 48.7,38.2 &#10;&#9;&#9;&#9;48.7,39.8 48.7,41.5 48.7,43.1 48.7,44.7 &#9;&#9;"/>
      <path class="st0" d="M62.1,35.3c-1.3-1.1-3.8-4.6-5.8-7.9s-3.6-6.3-3.5-6.5s3.1,1.3,6.2,3.1s6.1,4.2,7.6,5.1"/>
      <path class="st0" d="M39.1,29.3c1.3-1.1,4.3-3.3,7.4-5.2c3.1-1.9,6.3-3.3,6.5-3.2c0.2,0.2-1.6,3.1-3.7,6.4&#10;&#9;&#9;&#9;c-2.1,3.3-4.5,6.8-5.6,8.1"/>
    </g>
    <g>
      <polyline class="st0" points="44.5,47.9 43.1,47.4 41.6,46.9 40.1,46.4 38.6,45.9 37.1,45.4 35.6,44.9 34.2,44.5 32.7,44 &#10;&#9;&#9;&#9;33.3,43.5 34,43 34.6,42.6 35.2,42.1 35.9,41.6 36.5,41.1 37.1,40.7 37.8,40.2 37.2,39.4 36.7,38.7 36.1,37.9 35.5,37.1 35,36.4 &#10;&#9;&#9;&#9;34.4,35.6 33.9,34.8 33.3,34 31.8,35.4 30.3,36.7 28.8,38 27.3,39.3 25.8,40.6 24.3,41.9 22.7,43.2 21.2,44.5 21.7,46.5 &#10;&#9;&#9;&#9;22.2,48.5 22.6,50.4 23.1,52.4 23.5,54.4 24,56.3 24.4,58.3 24.9,60.2 25.8,59.9 26.7,59.6 27.6,59.3 28.5,59 29.4,58.7 &#10;&#9;&#9;&#9;30.3,58.4 31.2,58.1 32.1,57.8 31.9,57.1 31.6,56.3 31.4,55.6 31.1,54.8 30.9,54.1 30.7,53.3 30.4,52.6 30.2,51.8 31.7,52.3 &#10;&#9;&#9;&#9;33.2,52.8 34.7,53.3 36.3,53.8 37.8,54.3 39.3,54.8 40.8,55.3 42.4,55.8 &#9;&#9;"/>
      <path class="st0" d="M37.8,40.2c-1.5,0.9-5.5,2.2-9.3,3.1s-7.2,1.5-7.3,1.3c-0.1-0.2,2.2-2.6,4.9-4.9c2.7-2.3,5.9-4.5,7.2-5.6"/>
      <path class="st0" d="M24.9,60.2c-0.6-1.6-1.8-5.1-2.6-8.6c-0.8-3.5-1.2-7.1-1-7.2c0.2-0.1,2.5,2.5,4.9,5.5c2.5,3,5.1,6.4,5.9,7.9"/>
    </g>
    <g>
      <polyline class="st0" points="44,60.2 43,61.5 42,62.8 41.1,64.1 40.1,65.5 39.1,66.8 38.2,68.1 37.2,69.4 36.3,70.7 36,70 &#10;&#9;&#9;&#9;35.8,69.2 35.5,68.5 35.3,67.7 35,67 34.8,66.2 34.5,65.4 34.2,64.7 33.3,65 32.4,65.3 31.5,65.6 30.6,65.9 29.7,66.2 28.8,66.5 &#10;&#9;&#9;&#9;27.9,66.7 27,67 27.8,68.9 28.6,70.7 29.4,72.6 30.1,74.4 30.9,76.2 31.7,78.1 32.5,79.9 33.3,81.8 35.3,81.9 37.3,82.1 &#10;&#9;&#9;&#9;39.3,82.3 41.3,82.5 43.3,82.6 45.3,82.8 47.3,83 49.3,83.2 49.3,82.2 49.3,81.2 49.3,80.3 49.3,79.3 49.3,78.4 49.3,77.4 &#10;&#9;&#9;&#9;49.3,76.5 49.3,75.5 48.5,75.5 47.7,75.5 46.9,75.5 46.1,75.5 45.3,75.5 44.6,75.5 43.8,75.5 43,75.5 44,74.2 44.9,72.8 &#10;&#9;&#9;&#9;45.9,71.5 46.9,70.1 47.9,68.8 48.9,67.4 49.9,66 50.8,64.7 &#9;&#9;"/>
      <path class="st0" d="M34.2,64.7c0.4,1.7,0.4,5.9,0,9.8c-0.3,3.8-0.8,7.3-1,7.3c-0.2,0.1-1.8-2.9-3.2-6.2c-1.4-3.3-2.5-7-3.1-8.6"/>
      <path class="st0" d="M49.3,83.2c-1.7,0.1-5.4,0.2-9-0.2c-3.6-0.3-7.1-1-7.1-1.3c0-0.2,3.1-1.6,6.8-3c3.6-1.4,7.6-2.9,9.3-3.2"/>
    </g>
    <g>
      <defs>
        <path id="SVGID_1_" d="M44.2,48.4c-3.3,4.7-2.2,11.2,2.6,14.5c4.7,3.3,11.2,2.1,14.5-2.6c3.3-4.7,2.1-11.2-2.6-14.5&#10;&#9;&#9;&#9;&#9;c-1.8-1.3-3.9-1.9-6-1.9C49.4,43.9,46.2,45.5,44.2,48.4"/>
      </defs>
      <path id="" d="M44.2,48.4c-3.3,4.7-2.2,11.2,2.6,14.5c4.7,3.3,11.2,2.1,14.5-2.6c3.3-4.7,2.1-11.2-2.6-14.5&#10;&#9;&#9;&#9;&#9;c-1.8-1.3-3.9-1.9-6-1.9C49.4,43.9,46.2,45.5,44.2,48.4" transform="matrix(1, 0, 0, 1, 0, 0)" style="overflow: visible; fill: rgb(255, 255, 255);"/>
    </g>
    <g>
      <g>
        <path class="st1" d="M58.7,57.6c-0.1,0.3-0.1,0.4-0.4,0.7c-0.3,0.4-0.6,0.7-1.1,1.1c-0.5,0.3-1.1,0.6-1.8,0.9&#10;&#9;&#9;&#9;&#9;c-0.7,0.2-1.6,0.3-2.5,0.3c-2.2,0-3.9-0.6-5.1-1.7c-1.2-1.1-1.8-2.7-1.8-4.6c0-0.9,0.1-1.8,0.4-2.5c0.3-0.8,0.7-1.5,1.3-2&#10;&#9;&#9;&#9;&#9;c0.6-0.6,1.3-1,2.1-1.3c0.8-0.3,1.8-0.4,2.8-0.4c1.3,0,2.5,0.3,3.4,0.8c0.9,0.5,1.7,1.2,2.1,2c0.5,0.8,0.7,1.6,0.7,2.5&#10;&#9;&#9;&#9;&#9;c0,0.8-0.2,1.3-0.7,1.5c-0.5,0.2-1.2,0.3-2.1,0.3h-6.6c0,0.7,0.2,1.3,0.5,1.9c0.3,0.5,0.7,0.9,1.2,1.2c0.5,0.3,1,0.4,1.7,0.4&#10;&#9;&#9;&#9;&#9;c0.4,0,0.8,0,1.1-0.1c0.3-0.1,0.7-0.2,1-0.4c0.3-0.2,0.6-0.4,0.9-0.6c0.3-0.2,0.2-0.1,0.6-0.5 M49.6,53.3h6.1&#10;&#9;&#9;&#9;&#9;c-0.1-1.1-0.4-1.8-0.9-2.4c-0.5-0.5-1.3-0.8-2.1-0.8c-0.8,0-1.5,0.3-2.1,0.8C50,51.5,49.7,52.3,49.6,53.3z"/>
      </g>
      <g>
        <g>
          <g>
            <g>
              <path class="st1" d="M57.8,58.1c-0.2,0.3-0.5,0.7-1,1c-0.4,0.3-1,0.6-1.6,0.8c-0.7,0.2-1.4,0.3-2.3,0.3c-2,0-3.5-0.5-4.6-1.5&#10;&#9;&#9;&#9;&#9;&#9;&#9;&#9;c-1.1-1-1.6-2.4-1.6-4.2c0-0.8,0.1-1.6,0.4-2.3c0.3-0.7,0.7-1.3,1.2-1.8c0.5-0.5,1.1-0.9,1.9-1.2c0.8-0.3,1.6-0.4,2.5-0.4&#10;&#9;&#9;&#9;&#9;&#9;&#9;&#9;c1.2,0,2.2,0.2,3.1,0.7c0.9,0.5,1.5,1.1,1.9,1.8c0.4,0.7,0.6,1.5,0.6,2.2c0,0.7-0.2,1.2-0.7,1.4c-0.4,0.2-1.1,0.3-1.9,0.3h-6&#10;&#9;&#9;&#9;&#9;&#9;&#9;&#9;c0,0.6,0.1,1.2,0.4,1.7c0.3,0.5,0.6,0.9,1.1,1.1c0.5,0.2,0.9,0.4,1.5,0.4c0.4,0,0.7,0,1-0.1c0.3-0.1,0.6-0.2,0.9-0.4&#10;&#9;&#9;&#9;&#9;&#9;&#9;&#9;c0.3-0.2,0.5-0.3,0.8-0.5 M49.8,53.5h5.5c-0.1-1-0.4-1.7-0.8-2.1c-0.5-0.5-1.1-0.7-1.9-0.7c-0.8,0-1.4,0.2-1.9,0.7&#10;&#9;&#9;&#9;&#9;&#9;&#9;&#9;C50.2,51.9,49.9,52.6,49.8,53.5z"/>
            </g>
            <g>
              <path class="st1" d="M58.2,57.5c-0.1,0.1-0.2,0.5-0.3,0.6s-0.4,0.2-0.5,0.2s-0.2,0.1-0.3,0.2s-0.2-0.1-0.3,0&#10;&#9;&#9;&#9;&#9;&#9;&#9;&#9;c-0.1,0.1-0.2,0.1-0.3,0.2c-0.1,0.1-0.3,0.1-0.4,0.2c-0.1,0.1-0.3,0.1-0.4,0.2c-0.2,0.1-0.3,0.1-0.5,0.2&#10;&#9;&#9;&#9;&#9;&#9;&#9;&#9;c-0.2,0.1-0.3,0.1-0.5,0.1c-0.2,0-0.4,0.1-0.6,0.1c-0.2,0-0.4,0-0.6,0.1s-0.4,0-0.6,0c-0.5,0-1,0-1.4-0.1&#10;&#9;&#9;&#9;&#9;&#9;&#9;&#9;c-0.4-0.1-0.8-0.2-1.2-0.3c-0.4-0.1-0.7-0.3-1.1-0.5c-0.3-0.2-0.6-0.4-0.9-0.7c-0.3-0.3-0.5-0.5-0.7-0.8&#10;&#9;&#9;&#9;&#9;&#9;&#9;&#9;c-0.2-0.3-0.4-0.6-0.5-1c-0.1-0.3-0.2-0.7-0.3-1.1c-0.1-0.4-0.1-0.8-0.1-1.2c0-0.2,0-0.4,0-0.6s0-0.4,0.1-0.6s0.1-0.4,0.1-0.6&#10;&#9;&#9;&#9;&#9;&#9;&#9;&#9;c0.1-0.2,0.1-0.4,0.2-0.5c0.1-0.2,0.1-0.3,0.2-0.5s0.2-0.3,0.3-0.5c0.1-0.1,0.2-0.3,0.3-0.4s0.2-0.3,0.4-0.4&#10;&#9;&#9;&#9;&#9;&#9;&#9;&#9;c0.1-0.1,0.3-0.2,0.4-0.4c0.1-0.1,0.3-0.2,0.5-0.3c0.2-0.1,0.3-0.2,0.5-0.3c0.2-0.1,0.4-0.2,0.5-0.2c0.2-0.1,0.4-0.1,0.6-0.2&#10;&#9;&#9;&#9;&#9;&#9;&#9;&#9;c0.2,0,0.4-0.1,0.6-0.1s0.4-0.1,0.6-0.1c0.2,0,0.4,0,0.7,0c0.3,0,0.6,0,0.9,0c0.3,0,0.5,0.1,0.8,0.1c0.3,0.1,0.5,0.1,0.7,0.2&#10;&#9;&#9;&#9;&#9;&#9;&#9;&#9;c0.2,0.1,0.5,0.2,0.7,0.3c0.2,0.1,0.4,0.2,0.6,0.4s0.4,0.3,0.5,0.4c0.2,0.1,0.3,0.3,0.4,0.5s0.3,0.3,0.4,0.5&#10;&#9;&#9;&#9;&#9;&#9;&#9;&#9;c0.1,0.2,0.2,0.4,0.3,0.5s0.1,0.4,0.2,0.5c0.1,0.2,0.1,0.4,0.1,0.6s0,0.4,0,0.6c0,0.2,0,0.3,0,0.5c0,0.1-0.1,0.3-0.1,0.4&#10;&#9;&#9;&#9;&#9;&#9;&#9;&#9;c-0.1,0.1-0.1,0.2-0.2,0.3c-0.1,0.1-0.2,0.1-0.3,0.2c-0.1,0.1-0.2,0.1-0.4,0.1c-0.1,0-0.3,0.1-0.4,0.1c-0.2,0-0.3,0-0.5,0.1&#10;&#9;&#9;&#9;&#9;&#9;&#9;&#9;c-0.2,0-0.4,0-0.6,0h-1.5h-1.5h-1.5h-1.5c0,0.2,0,0.3,0,0.5c0,0.1,0,0.3,0.1,0.4c0,0.1,0.1,0.3,0.1,0.4&#10;&#9;&#9;&#9;&#9;&#9;&#9;&#9;c0.1,0.1,0.1,0.3,0.2,0.4c0.1,0.1,0.1,0.2,0.2,0.3c0.1,0.1,0.2,0.2,0.3,0.3c0.1,0.1,0.2,0.2,0.3,0.2c0.1,0.1,0.2,0.1,0.3,0.2&#10;&#9;&#9;&#9;&#9;&#9;&#9;&#9;c0.1,0.1,0.2,0.1,0.3,0.2c0.1,0,0.2,0.1,0.4,0.1c0.1,0,0.3,0.1,0.4,0.1c0.1,0,0.3,0,0.4,0c0.1,0,0.2,0,0.3,0&#10;&#9;&#9;&#9;&#9;&#9;&#9;&#9;c0.1,0,0.2,0,0.3,0c0.1,0,0.2,0,0.2,0s0.2,0,0.2-0.1c0.1,0,0.2,0,0.2-0.1s0.1-0.1,0.2-0.1c0.1,0,0.1-0.1,0.2-0.1&#10;&#9;&#9;&#9;&#9;&#9;&#9;&#9;c0.1,0,0.1-0.1,0.2-0.1c0.1,0,0.1-0.1,0.2-0.1c0.1,0,0.1-0.1,0.2-0.1c0.1,0,0.1-0.1,0.2-0.1c0.1,0,0.1-0.1,0.2-0.1&#10;&#9;&#9;&#9;&#9;&#9;&#9;&#9;c0.1,0,0.1,0,0.1-0.1 M49.8,53.1h1.4h1.4H54h1.4c0-0.2-0.1-0.5-0.1-0.7c0-0.2-0.1-0.4-0.2-0.6s-0.2-0.3-0.2-0.5&#10;&#9;&#9;&#9;&#9;&#9;&#9;&#9;c-0.1-0.1-0.2-0.3-0.3-0.4c-0.1-0.1-0.3-0.2-0.4-0.3c-0.1-0.1-0.3-0.2-0.5-0.2c-0.2-0.1-0.3-0.1-0.5-0.1c-0.2,0-0.4,0-0.6,0&#10;&#9;&#9;&#9;&#9;&#9;&#9;&#9;c-0.2,0-0.4,0-0.5,0c-0.2,0-0.3,0.1-0.5,0.1s-0.3,0.1-0.4,0.2c-0.1,0.1-0.3,0.2-0.4,0.3c-0.1,0.1-0.2,0.3-0.3,0.4&#10;&#9;&#9;&#9;&#9;&#9;&#9;&#9;c-0.1,0.1-0.2,0.3-0.3,0.5c-0.1,0.2-0.1,0.4-0.2,0.6C49.9,52.7,49.8,52.9,49.8,53.1z"/>
            </g>
          </g>
          <g>
            <g>
              <path class="st1" d="M57.6,58.1c-0.2,0.3-0.5,0.7-1,1c-0.4,0.3-1,0.6-1.6,0.8c-0.7,0.2-1.4,0.3-2.3,0.3c-2,0-3.5-0.5-4.6-1.5&#10;&#9;&#9;&#9;&#9;&#9;&#9;&#9;c-1.1-1-1.6-2.4-1.6-4.2c0-0.8,0.1-1.6,0.4-2.3c0.3-0.7,0.7-1.3,1.2-1.8c0.5-0.5,1.1-0.9,1.9-1.2c0.8-0.3,1.6-0.4,2.5-0.4&#10;&#9;&#9;&#9;&#9;&#9;&#9;&#9;c1.2,0,2.2,0.2,3.1,0.7c0.9,0.5,1.5,1.1,1.9,1.8c0.4,0.7,0.6,1.5,0.6,2.2c0,0.7-0.2,1.2-0.7,1.4c-0.4,0.2-1.1,0.3-1.9,0.3h-6&#10;&#9;&#9;&#9;&#9;&#9;&#9;&#9;c0,0.6,0.1,1.2,0.4,1.7c0.3,0.5,0.6,0.9,1.1,1.1c0.5,0.2,0.9,0.4,1.5,0.4c0.4,0,0.7,0,1-0.1c0.3-0.1,0.6-0.2,0.9-0.4&#10;&#9;&#9;&#9;&#9;&#9;&#9;&#9;c0.3-0.2,0.5-0.3,0.8-0.5 M49.6,53.5h5.5c-0.1-1-0.4-1.7-0.8-2.1c-0.5-0.5-1.1-0.7-1.9-0.7c-0.8,0-1.4,0.2-1.9,0.7&#10;&#9;&#9;&#9;&#9;&#9;&#9;&#9;C50,51.9,49.7,52.6,49.6,53.5z"/>
            </g>
            <g>
              <path class="st1" d="M57.6,57.5c-0.2,0.3-0.5,0.6-1,0.9c-0.4,0.3-1,0.5-1.6,0.7c-0.7,0.2-1.4,0.3-2.3,0.3&#10;&#9;&#9;&#9;&#9;&#9;&#9;&#9;c-2,0-3.5-0.5-4.6-1.4c-1.1-0.9-1.6-2.2-1.6-3.7c0-0.7,0.1-1.4,0.4-2.1c0.3-0.6,0.7-1.2,1.2-1.6c0.5-0.5,1.1-0.8,1.9-1&#10;&#9;&#9;&#9;&#9;&#9;&#9;&#9;c0.8-0.2,1.6-0.4,2.5-0.4c1.2,0,2.2,0.2,3.1,0.6c0.9,0.4,1.5,0.9,1.9,1.6c0.4,0.7,0.6,1.3,0.6,2c0,0.6-0.2,1-0.7,1.2&#10;&#9;&#9;&#9;&#9;&#9;&#9;&#9;c-0.4,0.2-1.1,0.3-1.9,0.3h-6c0,0.6,0.1,1.1,0.4,1.5c0.3,0.4,0.6,0.8,1.1,1c0.5,0.2,0.8,0.5,1.4,0.5c0.4,0,0.8,0.1,1.2,0.1&#10;&#9;&#9;&#9;&#9;&#9;&#9;&#9;c0.3-0.1,1,0,1.3-0.2c0.3-0.2,0.7-0.6,0.9-0.8 M49.6,53.4h5.5c-0.1-0.9-0.4-1.5-0.8-1.9c-0.5-0.4-1.1-0.6-1.9-0.6&#10;&#9;&#9;&#9;&#9;&#9;&#9;&#9;c-0.8,0-1.4,0.2-1.9,0.6C50,51.9,49.7,52.6,49.6,53.4z"/>
            </g>
          </g>
        </g>
        <g>
          <g>
            <g>
              <path class="st1" d="M58,57.9c-0.2,0.3-0.5,0.7-1,1c-0.4,0.3-1,0.6-1.6,0.8C54.7,59.9,54,60,53.1,60c-2,0-3.5-0.5-4.6-1.5&#10;&#9;&#9;&#9;&#9;&#9;&#9;&#9;c-1.1-1-1.6-2.4-1.6-4.2c0-0.8,0.1-1.6,0.4-2.3c0.3-0.7,0.7-1.3,1.2-1.8c0.5-0.5,1.1-0.9,1.9-1.2c0.8-0.3,1.6-0.4,2.5-0.4&#10;&#9;&#9;&#9;&#9;&#9;&#9;&#9;c1.2,0,2.2,0.2,3.1,0.7c0.9,0.5,1.5,1.1,1.9,1.8c0.4,0.7,0.6,1.5,0.6,2.2c0,0.7-0.2,1.2-0.7,1.4C57.4,54.9,56.8,55,56,55h-6&#10;&#9;&#9;&#9;&#9;&#9;&#9;&#9;c0,0.6,0.1,1.2,0.4,1.7c0.3,0.5,0.6,0.9,1.1,1.1c0.5,0.2,0.9,0.4,1.5,0.4c0.4,0,0.7,0,1-0.1c0.3-0.1,0.6-0.2,0.9-0.4&#10;&#9;&#9;&#9;&#9;&#9;&#9;&#9;c0.3-0.2,0.5-0.3,0.8-0.5 M50,53.4h5.5c-0.1-1-0.4-1.7-0.8-2.1c-0.5-0.5-1.1-0.7-1.9-0.7c-0.8,0-1.4,0.2-1.9,0.7&#10;&#9;&#9;&#9;&#9;&#9;&#9;&#9;C50.4,51.7,50.1,52.4,50,53.4z"/>
            </g>
            <g>
              <path class="st1" d="M57,58.4c-0.4,0.3-1,0.6-1.6,0.8c-0.7,0.2-1.4,0.3-2.3,0.3c-2,0-3.5-0.5-4.6-1.5c-1.1-1-1.6-2.4-1.6-4.1&#10;&#9;&#9;&#9;&#9;&#9;&#9;&#9;c0-0.8,0.1-1.6,0.4-2.3c0.3-0.7,0.7-1.3,1.2-1.8c0.5-0.5,1.1-0.9,1.9-1.1c0.8-0.3,1.6-0.4,2.5-0.4c1.2,0,2.2,0.2,3.1,0.7&#10;&#9;&#9;&#9;&#9;&#9;&#9;&#9;c0.9,0.5,1.5,1,1.9,1.8c0.4,0.7,0.6,1.5,0.6,2.2c0,0.7-0.2,1.1-0.7,1.3c-0.4,0.2-1.1,0.3-1.9,0.3h-6c0,0.6,0.1,1.2,0.4,1.7&#10;&#9;&#9;&#9;&#9;&#9;&#9;&#9;c0.3,0.5,0.6,0.8,1.1,1.1c0.5,0.2,0.9,0.4,1.5,0.4c0.4,0,0.7,0,1-0.1c0.3-0.1,0.6-0.2,0.9-0.4 M50,53h5.5&#10;&#9;&#9;&#9;&#9;&#9;&#9;&#9;c-0.1-0.9-0.4-1.6-0.8-2.1c-0.5-0.5-1.1-0.7-1.9-0.7c-0.8,0-1.4,0.2-1.9,0.7C50.4,51.4,50.1,52.1,50,53z"/>
            </g>
          </g>
          <g>
            <g>
              <path class="st1" d="M58,57.5c0,0.3,0,0.3-0.2,0.7c-0.2,0.3-0.5,0.7-1,1c-0.4,0.3-1,0.6-1.6,0.8c-0.7,0.2-1.4,0.3-2.3,0.3&#10;&#9;&#9;&#9;&#9;&#9;&#9;&#9;c-2,0-3.5-0.5-4.6-1.5c-1.1-1-1.6-2.4-1.6-4.2c0-0.8,0.1-1.6,0.4-2.3c0.3-0.7,0.7-1.3,1.2-1.8c0.5-0.5,1.1-0.9,1.9-1.2&#10;&#9;&#9;&#9;&#9;&#9;&#9;&#9;c0.8-0.3,1.6-0.4,2.5-0.4c1.2,0,2.2,0.2,3.1,0.7c0.9,0.5,1.5,1.1,1.9,1.8c0.4,0.7,0.6,1.5,0.6,2.2c0,0.7-0.2,1.2-0.7,1.4&#10;&#9;&#9;&#9;&#9;&#9;&#9;&#9;c-0.4,0.2-1.1,0.3-1.9,0.3h-6c0,0.6,0.1,1.2,0.4,1.7c0.3,0.5,0.6,0.9,1.1,1.1c0.5,0.2,0.9,0.4,1.5,0.4c0.4,0,0.7,0,1-0.1&#10;&#9;&#9;&#9;&#9;&#9;&#9;&#9;c0.3-0.1,0.6-0.2,0.9-0.4c0.3-0.2,0.5-0.3,0.8-0.5c0.2-0.2,0.2-0.1,0.5-0.5 M49.8,53.6h5.5c-0.1-1-0.4-1.7-0.8-2.1&#10;&#9;&#9;&#9;&#9;&#9;&#9;&#9;c-0.5-0.5-1.1-0.7-1.9-0.7c-0.8,0-1.4,0.2-1.9,0.7C50.2,51.9,49.9,52.7,49.8,53.6z"/>
            </g>
            <g>
              <path class="st1" d="M57.9,57.4c-0.2,0.3-0.5,0.6-1,0.9c-0.4,0.3-1,0.5-1.6,0.7c-0.7,0.2-1.4,0.3-2.3,0.3&#10;&#9;&#9;&#9;&#9;&#9;&#9;&#9;c-2,0-3.5-0.5-4.6-1.4c-1.1-0.9-1.6-2.2-1.6-3.7c0-0.7,0.1-1.4,0.4-2.1c0.3-0.6,0.7-1.2,1.2-1.6c0.5-0.5,1.1-0.8,1.9-1&#10;&#9;&#9;&#9;&#9;&#9;&#9;&#9;c0.8-0.2,1.6-0.4,2.5-0.4c1.2,0,2.2,0.2,3.1,0.6c0.9,0.4,1.5,0.9,1.9,1.6c0.4,0.7,0.6,1.3,0.6,2c0,0.6-0.2,1-0.7,1.2&#10;&#9;&#9;&#9;&#9;&#9;&#9;&#9;c-0.4,0.2-1.1,0.3-1.9,0.3h-6c0,0.6,0.1,1.1,0.4,1.5c0.3,0.4,0.6,0.8,1.1,1c0.5,0.2,0.9,0.3,1.5,0.3c0.4,0,0.7,0,1-0.1&#10;&#9;&#9;&#9;&#9;&#9;&#9;&#9;c0.3-0.1,0.6-0.2,0.9-0.3c0.3-0.2,0.5-0.3,0.8-0.5 M49.9,53.4h5.5c-0.1-0.9-0.4-1.5-0.8-1.9c-0.5-0.4-1.1-0.6-1.9-0.6&#10;&#9;&#9;&#9;&#9;&#9;&#9;&#9;c-0.8,0-1.4,0.2-1.9,0.6C50.3,51.9,50,52.5,49.9,53.4z"/>
            </g>
          </g>
        </g>
      </g>
    </g>
  </g>
  <text id="XMLID_53_" style="white-space: pre;" x="87.605" y="41.385"><tspan x="87.605" y="41.385" class="st0 st2 st3 st4" style="font-size: 39.7px; word-spacing: 0px;">экспресс</tspan><tspan x="87.605" y="80.985" class="st5 st2 st3 st4" style="font-size: 39.7px; word-spacing: 0px;">касса</tspan></text>
</svg>