<?xml version="1.0" encoding="utf-8"?>
<!-- Generator: Adobe Illustrator 19.0.0, SVG Export Plug-In . SVG Version: 6.00 Build 0)  -->
<svg version="1.1" id="Layer_1" xmlns="http://www.w3.org/2000/svg" xmlns:xlink="http://www.w3.org/1999/xlink" x="0px" y="0px"
	 viewBox="-4070.8 2519.4 262.1 65.7" style="enable-background:new -4070.8 2519.4 262.1 65.7;" xml:space="preserve">
<style type="text/css">
	.st0{fill:#4B79BB;}
	.st1{fill:#FFFFFF;}
	.st2{fill:#D24A43;}
	.st3{enable-background:new    ;}
	.st4{fill:#3EB5F1;}
</style>
<g>
	<g>
		<polyline class="st0" points="-4037.1,2564.9 -4036.1,2566.2 -4035.1,2567.6 -4034.2,2568.9 -4033.2,2570.3 -4032.2,2571.6 
			-4031.2,2573 -4030.3,2574.3 -4029.3,2575.7 -4030.1,2575.7 -4030.9,2575.7 -4031.7,2575.7 -4032.5,2575.7 -4033.3,2575.7 
			-4034,2575.7 -4034.8,2575.7 -4035.6,2575.8 -4035.6,2576.7 -4035.6,2577.7 -4035.6,2578.6 -4035.6,2579.6 -4035.6,2580.5 
			-4035.6,2581.5 -4035.6,2582.4 -4035.6,2583.4 -4033.6,2583.2 -4031.7,2583 -4029.7,2582.8 -4027.7,2582.7 -4025.7,2582.5 
			-4023.7,2582.3 -4021.7,2582.1 -4019.7,2582 -4018.9,2580.1 -4018.1,2578.3 -4017.3,2576.4 -4016.6,2574.5 -4015.8,2572.7 
			-4015,2570.8 -4014.2,2569 -4013.4,2567.1 -4014.3,2566.8 -4015.2,2566.5 -4016.1,2566.2 -4017.1,2565.9 -4018,2565.7 
			-4018.9,2565.4 -4019.8,2565.1 -4020.7,2564.8 -4020.9,2565.5 -4021.2,2566.3 -4021.4,2567 -4021.7,2567.8 -4021.9,2568.5 
			-4022.1,2569.3 -4022.4,2570.1 -4022.6,2570.8 -4023.6,2569.5 -4024.6,2568.1 -4025.5,2566.8 -4026.5,2565.5 -4027.5,2564.1 
			-4028.4,2562.8 -4029.4,2561.5 -4030.4,2560.1 		"/>
		<path class="st0" d="M-4035.6,2575.8c1.7,0.2,5.7,1.5,9.3,3c3.6,1.5,6.7,3,6.7,3.2s-3.3,0.8-6.8,1.1c-3.6,0.3-7.4,0.2-9.1,0.3"/>
		<path class="st0" d="M-4013.4,2567.1c-0.4,1.7-1.5,5.2-2.9,8.5c-1.4,3.3-3.2,6.4-3.4,6.4c-0.2,0-0.5-3.5-0.8-7.3
			c-0.2-3.9-0.4-8.1-0.2-9.9"/>
	</g>
	<g>
		<polyline class="st0" points="-4028.9,2556.2 -4027.4,2555.6 -4025.8,2555.1 -4024.2,2554.6 -4022.7,2554.1 -4021.1,2553.6 
			-4019.5,2553.1 -4018,2552.6 -4016.4,2552.1 -4016.6,2552.9 -4016.9,2553.6 -4017.1,2554.4 -4017.3,2555.1 -4017.6,2555.9 
			-4017.8,2556.7 -4018.1,2557.4 -4018.3,2558.2 -4017.4,2558.5 -4016.5,2558.8 -4015.6,2559.1 -4014.7,2559.3 -4013.8,2559.6 
			-4012.9,2559.9 -4012,2560.2 -4011.1,2560.5 -4010.6,2558.6 -4010.2,2556.6 -4009.7,2554.7 -4009.3,2552.7 -4008.8,2550.8 
			-4008.4,2548.8 -4007.9,2546.9 -4007.5,2544.9 -4009,2543.6 -4010.5,2542.3 -4012,2541 -4013.6,2539.7 -4015.1,2538.3 
			-4016.6,2537 -4018.1,2535.7 -4019.7,2534.4 -4020.2,2535.1 -4020.8,2535.9 -4021.3,2536.7 -4021.9,2537.5 -4022.4,2538.2 
			-4023,2539 -4023.5,2539.8 -4024.1,2540.6 -4023.5,2541 -4022.8,2541.5 -4022.2,2542 -4021.5,2542.4 -4020.9,2542.9 
			-4020.3,2543.3 -4019.6,2543.8 -4019,2544.3 -4020.5,2544.8 -4022,2545.2 -4023.5,2545.7 -4025,2546.2 -4026.5,2546.7 
			-4028.1,2547.2 -4029.6,2547.7 -4031.1,2548.2 		"/>
		<path class="st0" d="M-4018.3,2558.2c0.7-1.6,3.2-5,5.7-7.9c2.5-2.9,4.9-5.4,5.1-5.4c0.2,0-0.2,3.4-1.1,6.8
			c-0.8,3.5-2.1,7.1-2.5,8.8"/>
		<path class="st0" d="M-4019.7,2534.4c1.4,0.9,4.5,3,7.2,5.4c2.7,2.4,5.1,5,5,5.2c-0.1,0.2-3.5-0.6-7.2-1.5c-3.7-1-7.9-2.2-9.4-2.9
			"/>
	</g>
	<g>
		<polyline class="st0" points="-4035.1,2545.1 -4035.1,2543.5 -4035.1,2541.8 -4035.1,2540.2 -4035.1,2538.5 -4035.1,2536.9 
			-4035,2535.2 -4035,2533.6 -4035,2531.9 -4034.4,2532.4 -4033.7,2532.9 -4033.1,2533.3 -4032.5,2533.8 -4031.8,2534.2 
			-4031.2,2534.7 -4030.5,2535.2 -4029.9,2535.6 -4029.3,2534.9 -4028.8,2534.1 -4028.2,2533.3 -4027.6,2532.5 -4027.1,2531.8 
			-4026.5,2531 -4026,2530.2 -4025.4,2529.5 -4027.1,2528.4 -4028.8,2527.4 -4030.5,2526.4 -4032.2,2525.3 -4034,2524.3 
			-4035.7,2523.3 -4037.4,2522.3 -4039.1,2521.2 -4040.8,2522.3 -4042.6,2523.3 -4044.3,2524.4 -4046,2525.4 -4047.7,2526.4 
			-4049.5,2527.5 -4051.2,2528.5 -4052.9,2529.6 -4052.4,2530.3 -4051.8,2531.1 -4051.2,2531.9 -4050.7,2532.6 -4050.1,2533.4 
			-4049.5,2534.2 -4049,2534.9 -4048.4,2535.7 -4047.8,2535.2 -4047.1,2534.8 -4046.5,2534.3 -4045.9,2533.8 -4045.2,2533.4 
			-4044.6,2532.9 -4043.9,2532.4 -4043.3,2532 -4043.3,2533.6 -4043.3,2535.2 -4043.3,2536.9 -4043.3,2538.5 -4043.3,2540.1 
			-4043.3,2541.8 -4043.3,2543.4 -4043.3,2545 		"/>
		<path class="st0" d="M-4029.9,2535.6c-1.3-1.1-3.8-4.6-5.8-7.9s-3.6-6.3-3.5-6.5c0.1-0.2,3.1,1.3,6.2,3.1c3.1,1.8,6.1,4.2,7.6,5.1
			"/>
		<path class="st0" d="M-4052.9,2529.6c1.3-1.1,4.3-3.3,7.4-5.2c3.1-1.9,6.3-3.3,6.5-3.2c0.2,0.2-1.6,3.1-3.7,6.4
			c-2.1,3.3-4.5,6.8-5.6,8.1"/>
	</g>
	<g>
		<polyline class="st0" points="-4047.5,2548.2 -4048.9,2547.7 -4050.4,2547.2 -4051.9,2546.7 -4053.4,2546.2 -4054.9,2545.7 
			-4056.4,2545.2 -4057.8,2544.8 -4059.3,2544.3 -4058.7,2543.8 -4058,2543.3 -4057.4,2542.9 -4056.8,2542.4 -4056.1,2541.9 
			-4055.5,2541.4 -4054.9,2541 -4054.2,2540.5 -4054.8,2539.7 -4055.3,2539 -4055.9,2538.2 -4056.5,2537.4 -4057,2536.7 
			-4057.6,2535.9 -4058.1,2535.1 -4058.7,2534.3 -4060.2,2535.7 -4061.7,2537 -4063.2,2538.3 -4064.7,2539.6 -4066.2,2540.9 
			-4067.7,2542.2 -4069.3,2543.5 -4070.8,2544.8 -4070.3,2546.8 -4069.8,2548.8 -4069.4,2550.7 -4068.9,2552.7 -4068.5,2554.7 
			-4068,2556.6 -4067.6,2558.6 -4067.1,2560.5 -4066.2,2560.2 -4065.3,2559.9 -4064.4,2559.6 -4063.5,2559.3 -4062.6,2559 
			-4061.7,2558.7 -4060.8,2558.4 -4059.9,2558.1 -4060.1,2557.4 -4060.4,2556.6 -4060.6,2555.9 -4060.9,2555.1 -4061.1,2554.4 
			-4061.3,2553.6 -4061.6,2552.9 -4061.8,2552.1 -4060.3,2552.6 -4058.8,2553.1 -4057.3,2553.6 -4055.7,2554.1 -4054.2,2554.6 
			-4052.7,2555.1 -4051.2,2555.6 -4049.6,2556.1 		"/>
		<path class="st0" d="M-4054.2,2540.5c-1.5,0.9-5.5,2.2-9.3,3.1c-3.8,0.9-7.2,1.5-7.3,1.3c-0.1-0.2,2.2-2.6,4.9-4.9
			s5.9-4.5,7.2-5.6"/>
		<path class="st0" d="M-4067.1,2560.5c-0.6-1.6-1.8-5.1-2.6-8.6c-0.8-3.5-1.2-7.1-1-7.2c0.2-0.1,2.5,2.5,4.9,5.5
			c2.5,3,5.1,6.4,5.9,7.9"/>
	</g>
	<g>
		<polyline class="st0" points="-4048,2560.5 -4049,2561.8 -4050,2563.1 -4050.9,2564.4 -4051.9,2565.8 -4052.9,2567.1 
			-4053.8,2568.4 -4054.8,2569.7 -4055.7,2571 -4056,2570.3 -4056.2,2569.5 -4056.5,2568.8 -4056.7,2568 -4057,2567.3 
			-4057.2,2566.5 -4057.5,2565.7 -4057.8,2565 -4058.7,2565.3 -4059.6,2565.6 -4060.5,2565.9 -4061.4,2566.2 -4062.3,2566.5 
			-4063.2,2566.8 -4064.1,2567 -4065,2567.3 -4064.2,2569.2 -4063.4,2571 -4062.6,2572.9 -4061.9,2574.7 -4061.1,2576.5 
			-4060.3,2578.4 -4059.5,2580.2 -4058.7,2582.1 -4056.7,2582.2 -4054.7,2582.4 -4052.7,2582.6 -4050.7,2582.8 -4048.7,2582.9 
			-4046.7,2583.1 -4044.7,2583.3 -4042.7,2583.5 -4042.7,2582.5 -4042.7,2581.5 -4042.7,2580.6 -4042.7,2579.6 -4042.7,2578.7 
			-4042.7,2577.7 -4042.7,2576.8 -4042.7,2575.8 -4043.5,2575.8 -4044.3,2575.8 -4045.1,2575.8 -4045.9,2575.8 -4046.7,2575.8 
			-4047.4,2575.8 -4048.2,2575.8 -4049,2575.8 -4048,2574.5 -4047.1,2573.1 -4046.1,2571.8 -4045.1,2570.4 -4044.1,2569.1 
			-4043.1,2567.7 -4042.1,2566.3 -4041.2,2565 		"/>
		<path class="st0" d="M-4057.8,2565c0.4,1.7,0.4,5.9,0,9.8c-0.3,3.8-0.8,7.3-1,7.3c-0.2,0.1-1.8-2.9-3.2-6.2
			c-1.4-3.3-2.5-7-3.1-8.6"/>
		<path class="st0" d="M-4042.7,2583.5c-1.7,0.1-5.4,0.2-9-0.2c-3.6-0.3-7.1-1-7.1-1.3c0-0.2,3.1-1.6,6.8-3c3.6-1.4,7.6-2.9,9.3-3.2
			"/>
	</g>
	<g>
		<g>
			<path id="SVGID_1_" class="st1" d="M-4047.8,2548.7c-3.3,4.7-2.2,11.2,2.6,14.5c4.7,3.3,11.2,2.1,14.5-2.6
				c3.3-4.7,2.1-11.2-2.6-14.5c-1.8-1.3-3.9-1.9-6-1.9C-4042.6,2544.2-4045.8,2545.8-4047.8,2548.7"/>
		</g>
	</g>
	<g>
		<g>
			<path class="st2" d="M-4033.3,2557.9c-0.1,0.3-0.1,0.4-0.4,0.7c-0.3,0.4-0.6,0.7-1.1,1.1c-0.5,0.3-1.1,0.6-1.8,0.9
				c-0.7,0.2-1.6,0.3-2.5,0.3c-2.2,0-3.9-0.6-5.1-1.7c-1.2-1.1-1.8-2.7-1.8-4.6c0-0.9,0.1-1.8,0.4-2.5c0.3-0.8,0.7-1.5,1.3-2
				c0.6-0.6,1.3-1,2.1-1.3c0.8-0.3,1.8-0.4,2.8-0.4c1.3,0,2.5,0.3,3.4,0.8c0.9,0.5,1.7,1.2,2.1,2c0.5,0.8,0.7,1.6,0.7,2.5
				c0,0.8-0.2,1.3-0.7,1.5s-1.2,0.3-2.1,0.3h-6.6c0,0.7,0.2,1.3,0.5,1.9c0.3,0.5,0.7,0.9,1.2,1.2c0.5,0.3,1,0.4,1.7,0.4
				c0.4,0,0.8,0,1.1-0.1c0.3-0.1,0.7-0.2,1-0.4s0.6-0.4,0.9-0.6c0.3-0.2,0.2-0.1,0.6-0.5 M-4042.4,2553.6h6.1
				c-0.1-1.1-0.4-1.8-0.9-2.4c-0.5-0.5-1.3-0.8-2.1-0.8s-1.5,0.3-2.1,0.8C-4042,2551.8-4042.3,2552.6-4042.4,2553.6z"/>
		</g>
		<g>
			<g>
				<g>
					<g>
						<path class="st2" d="M-4034.2,2558.4c-0.2,0.3-0.5,0.7-1,1c-0.4,0.3-1,0.6-1.6,0.8c-0.7,0.2-1.4,0.3-2.3,0.3
							c-2,0-3.5-0.5-4.6-1.5c-1.1-1-1.6-2.4-1.6-4.2c0-0.8,0.1-1.6,0.4-2.3s0.7-1.3,1.2-1.8s1.1-0.9,1.9-1.2s1.6-0.4,2.5-0.4
							c1.2,0,2.2,0.2,3.1,0.7c0.9,0.5,1.5,1.1,1.9,1.8c0.4,0.7,0.6,1.5,0.6,2.2c0,0.7-0.2,1.2-0.7,1.4c-0.4,0.2-1.1,0.3-1.9,0.3h-6
							c0,0.6,0.1,1.2,0.4,1.7s0.6,0.9,1.1,1.1s0.9,0.4,1.5,0.4c0.4,0,0.7,0,1-0.1c0.3-0.1,0.6-0.2,0.9-0.4s0.5-0.3,0.8-0.5
							 M-4042.2,2553.8h5.5c-0.1-1-0.4-1.7-0.8-2.1c-0.5-0.5-1.1-0.7-1.9-0.7s-1.4,0.2-1.9,0.7S-4042.1,2552.9-4042.2,2553.8z"/>
					</g>
					<g>
						<path class="st2" d="M-4033.8,2557.8c-0.1,0.1-0.2,0.5-0.3,0.6c-0.1,0.1-0.4,0.2-0.5,0.2s-0.2,0.1-0.3,0.2
							c-0.1,0.1-0.2-0.1-0.3,0c-0.1,0.1-0.2,0.1-0.3,0.2c-0.1,0.1-0.3,0.1-0.4,0.2c-0.1,0.1-0.3,0.1-0.4,0.2
							c-0.2,0.1-0.3,0.1-0.5,0.2c-0.2,0.1-0.3,0.1-0.5,0.1s-0.4,0.1-0.6,0.1s-0.4,0-0.6,0.1c-0.2,0.1-0.4,0-0.6,0
							c-0.5,0-1,0-1.4-0.1c-0.4-0.1-0.8-0.2-1.2-0.3c-0.4-0.1-0.7-0.3-1.1-0.5c-0.3-0.2-0.6-0.4-0.9-0.7c-0.3-0.3-0.5-0.5-0.7-0.8
							s-0.4-0.6-0.5-1c-0.1-0.3-0.2-0.7-0.3-1.1c-0.1-0.4-0.1-0.8-0.1-1.2c0-0.2,0-0.4,0-0.6c0-0.2,0-0.4,0.1-0.6
							c0.1-0.2,0.1-0.4,0.1-0.6c0.1-0.2,0.1-0.4,0.2-0.5c0.1-0.2,0.1-0.3,0.2-0.5c0.1-0.2,0.2-0.3,0.3-0.5c0.1-0.1,0.2-0.3,0.3-0.4
							s0.2-0.3,0.4-0.4c0.1-0.1,0.3-0.2,0.4-0.4c0.1-0.1,0.3-0.2,0.5-0.3c0.2-0.1,0.3-0.2,0.5-0.3c0.2-0.1,0.4-0.2,0.5-0.2
							c0.2-0.1,0.4-0.1,0.6-0.2c0.2,0,0.4-0.1,0.6-0.1s0.4-0.1,0.6-0.1c0.2,0,0.4,0,0.7,0s0.6,0,0.9,0s0.5,0.1,0.8,0.1
							c0.3,0.1,0.5,0.1,0.7,0.2c0.2,0.1,0.5,0.2,0.7,0.3c0.2,0.1,0.4,0.2,0.6,0.4s0.4,0.3,0.5,0.4c0.2,0.1,0.3,0.3,0.4,0.5
							c0.1,0.2,0.3,0.3,0.4,0.5c0.1,0.2,0.2,0.4,0.3,0.5c0.1,0.1,0.1,0.4,0.2,0.5c0.1,0.2,0.1,0.4,0.1,0.6s0,0.4,0,0.6
							c0,0.2,0,0.3,0,0.5c0,0.1-0.1,0.3-0.1,0.4c-0.1,0.1-0.1,0.2-0.2,0.3c-0.1,0.1-0.2,0.1-0.3,0.2c-0.1,0.1-0.2,0.1-0.4,0.1
							c-0.1,0-0.3,0.1-0.4,0.1c-0.2,0-0.3,0-0.5,0.1c-0.2,0-0.4,0-0.6,0h-1.5h-1.5h-1.5h-1.5c0,0.2,0,0.3,0,0.5c0,0.1,0,0.3,0.1,0.4
							c0,0.1,0.1,0.3,0.1,0.4c0.1,0.1,0.1,0.3,0.2,0.4c0.1,0.1,0.1,0.2,0.2,0.3c0.1,0.1,0.2,0.2,0.3,0.3c0.1,0.1,0.2,0.2,0.3,0.2
							c0.1,0.1,0.2,0.1,0.3,0.2c0.1,0.1,0.2,0.1,0.3,0.2c0.1,0,0.2,0.1,0.4,0.1c0.1,0,0.3,0.1,0.4,0.1s0.3,0,0.4,0
							c0.1,0,0.2,0,0.3,0c0.1,0,0.2,0,0.3,0s0.2,0,0.2,0s0.2,0,0.2-0.1c0.1,0,0.2,0,0.2-0.1c0-0.1,0.1-0.1,0.2-0.1
							c0.1,0,0.1-0.1,0.2-0.1s0.1-0.1,0.2-0.1c0.1,0,0.1-0.1,0.2-0.1c0.1,0,0.1-0.1,0.2-0.1c0.1,0,0.1-0.1,0.2-0.1s0.1-0.1,0.2-0.1
							c0.1,0,0.1,0,0.1-0.1 M-4042.2,2553.4h1.4h1.4h1.4h1.4c0-0.2-0.1-0.5-0.1-0.7s-0.1-0.4-0.2-0.6c-0.1-0.2-0.2-0.3-0.2-0.5
							c-0.1-0.1-0.2-0.3-0.3-0.4c-0.1-0.1-0.3-0.2-0.4-0.3c-0.1-0.1-0.3-0.2-0.5-0.2c-0.2-0.1-0.3-0.1-0.5-0.1s-0.4,0-0.6,0
							s-0.4,0-0.5,0c-0.2,0-0.3,0.1-0.5,0.1s-0.3,0.1-0.4,0.2c-0.1,0.1-0.3,0.2-0.4,0.3c-0.1,0.1-0.2,0.3-0.3,0.4
							c-0.1,0.1-0.2,0.3-0.3,0.5c-0.1,0.2-0.1,0.4-0.2,0.6C-4042.1,2553-4042.2,2553.2-4042.2,2553.4z"/>
					</g>
				</g>
				<g>
					<g>
						<path class="st2" d="M-4034.4,2558.4c-0.2,0.3-0.5,0.7-1,1c-0.4,0.3-1,0.6-1.6,0.8c-0.7,0.2-1.4,0.3-2.3,0.3
							c-2,0-3.5-0.5-4.6-1.5c-1.1-1-1.6-2.4-1.6-4.2c0-0.8,0.1-1.6,0.4-2.3s0.7-1.3,1.2-1.8s1.1-0.9,1.9-1.2s1.6-0.4,2.5-0.4
							c1.2,0,2.2,0.2,3.1,0.7c0.9,0.5,1.5,1.1,1.9,1.8c0.4,0.7,0.6,1.5,0.6,2.2c0,0.7-0.2,1.2-0.7,1.4c-0.4,0.2-1.1,0.3-1.9,0.3h-6
							c0,0.6,0.1,1.2,0.4,1.7s0.6,0.9,1.1,1.1s0.9,0.4,1.5,0.4c0.4,0,0.7,0,1-0.1c0.3-0.1,0.6-0.2,0.9-0.4s0.5-0.3,0.8-0.5
							 M-4042.4,2553.8h5.5c-0.1-1-0.4-1.7-0.8-2.1c-0.5-0.5-1.1-0.7-1.9-0.7s-1.4,0.2-1.9,0.7S-4042.3,2552.9-4042.4,2553.8z"/>
					</g>
					<g>
						<path class="st2" d="M-4034.4,2557.8c-0.2,0.3-0.5,0.6-1,0.9c-0.4,0.3-1,0.5-1.6,0.7c-0.7,0.2-1.4,0.3-2.3,0.3
							c-2,0-3.5-0.5-4.6-1.4c-1.1-0.9-1.6-2.2-1.6-3.7c0-0.7,0.1-1.4,0.4-2.1c0.3-0.6,0.7-1.2,1.2-1.6c0.5-0.5,1.1-0.8,1.9-1
							c0.8-0.2,1.6-0.4,2.5-0.4c1.2,0,2.2,0.2,3.1,0.6c0.9,0.4,1.5,0.9,1.9,1.6c0.4,0.7,0.6,1.3,0.6,2c0,0.6-0.2,1-0.7,1.2
							c-0.4,0.2-1.1,0.3-1.9,0.3h-6c0,0.6,0.1,1.1,0.4,1.5c0.3,0.4,0.6,0.8,1.1,1s0.8,0.5,1.4,0.5c0.4,0,0.8,0.1,1.2,0.1
							c0.3-0.1,1,0,1.3-0.2c0.3-0.2,0.7-0.6,0.9-0.8 M-4042.4,2553.7h5.5c-0.1-0.9-0.4-1.5-0.8-1.9c-0.5-0.4-1.1-0.6-1.9-0.6
							s-1.4,0.2-1.9,0.6C-4042,2552.2-4042.3,2552.9-4042.4,2553.7z"/>
					</g>
				</g>
			</g>
			<g>
				<g>
					<g>
						<path class="st2" d="M-4034,2558.2c-0.2,0.3-0.5,0.7-1,1c-0.4,0.3-1,0.6-1.6,0.8c-0.7,0.2-1.4,0.3-2.3,0.3
							c-2,0-3.5-0.5-4.6-1.5c-1.1-1-1.6-2.4-1.6-4.2c0-0.8,0.1-1.6,0.4-2.3c0.3-0.7,0.7-1.3,1.2-1.8s1.1-0.9,1.9-1.2
							s1.6-0.4,2.5-0.4c1.2,0,2.2,0.2,3.1,0.7c0.9,0.5,1.5,1.1,1.9,1.8c0.4,0.7,0.6,1.5,0.6,2.2c0,0.7-0.2,1.2-0.7,1.4
							c-0.4,0.2-1,0.3-1.8,0.3h-6c0,0.6,0.1,1.2,0.4,1.7s0.6,0.9,1.1,1.1c0.5,0.2,0.9,0.4,1.5,0.4c0.4,0,0.7,0,1-0.1
							c0.3-0.1,0.6-0.2,0.9-0.4s0.5-0.3,0.8-0.5 M-4042,2553.7h5.5c-0.1-1-0.4-1.7-0.8-2.1c-0.5-0.5-1.1-0.7-1.9-0.7
							c-0.8,0-1.4,0.2-1.9,0.7C-4041.6,2552-4041.9,2552.7-4042,2553.7z"/>
					</g>
					<g>
						<path class="st2" d="M-4035,2558.7c-0.4,0.3-1,0.6-1.6,0.8c-0.7,0.2-1.4,0.3-2.3,0.3c-2,0-3.5-0.5-4.6-1.5
							c-1.1-1-1.6-2.4-1.6-4.1c0-0.8,0.1-1.6,0.4-2.3c0.3-0.7,0.7-1.3,1.2-1.8s1.1-0.9,1.9-1.1c0.8-0.3,1.6-0.4,2.5-0.4
							c1.2,0,2.2,0.2,3.1,0.7c0.9,0.5,1.5,1,1.9,1.8c0.4,0.7,0.6,1.5,0.6,2.2s-0.2,1.1-0.7,1.3c-0.4,0.2-1.1,0.3-1.9,0.3h-6
							c0,0.6,0.1,1.2,0.4,1.7c0.3,0.5,0.6,0.8,1.1,1.1c0.5,0.2,0.9,0.4,1.5,0.4c0.4,0,0.7,0,1-0.1s0.6-0.2,0.9-0.4 M-4042,2553.3
							h5.5c-0.1-0.9-0.4-1.6-0.8-2.1c-0.5-0.5-1.1-0.7-1.9-0.7c-0.8,0-1.4,0.2-1.9,0.7S-4041.9,2552.4-4042,2553.3z"/>
					</g>
				</g>
				<g>
					<g>
						<path class="st2" d="M-4034,2557.8c0,0.3,0,0.3-0.2,0.7c-0.2,0.3-0.5,0.7-1,1c-0.4,0.3-1,0.6-1.6,0.8
							c-0.7,0.2-1.4,0.3-2.3,0.3c-2,0-3.5-0.5-4.6-1.5c-1.1-1-1.6-2.4-1.6-4.2c0-0.8,0.1-1.6,0.4-2.3c0.3-0.7,0.7-1.3,1.2-1.8
							s1.1-0.9,1.9-1.2c0.8-0.3,1.6-0.4,2.5-0.4c1.2,0,2.2,0.2,3.1,0.7c0.9,0.5,1.5,1.1,1.9,1.8s0.6,1.5,0.6,2.2
							c0,0.7-0.2,1.2-0.7,1.4c-0.4,0.2-1.1,0.3-1.9,0.3h-6c0,0.6,0.1,1.2,0.4,1.7s0.6,0.9,1.1,1.1c0.5,0.2,0.9,0.4,1.5,0.4
							c0.4,0,0.7,0,1-0.1c0.3-0.1,0.6-0.2,0.9-0.4s0.5-0.3,0.8-0.5c0.2-0.2,0.2-0.1,0.5-0.5 M-4042.2,2553.9h5.5
							c-0.1-1-0.4-1.7-0.8-2.1c-0.5-0.5-1.1-0.7-1.9-0.7s-1.4,0.2-1.9,0.7C-4041.8,2552.2-4042.1,2553-4042.2,2553.9z"/>
					</g>
					<g>
						<path class="st2" d="M-4034.1,2557.7c-0.2,0.3-0.5,0.6-1,0.9c-0.4,0.3-1,0.5-1.6,0.7c-0.7,0.2-1.4,0.3-2.3,0.3
							c-2,0-3.5-0.5-4.6-1.4c-1.1-0.9-1.6-2.2-1.6-3.7c0-0.7,0.1-1.4,0.4-2.1c0.3-0.6,0.7-1.2,1.2-1.6c0.5-0.5,1.1-0.8,1.9-1
							c0.8-0.2,1.6-0.4,2.5-0.4c1.2,0,2.2,0.2,3.1,0.6c0.9,0.4,1.5,0.9,1.9,1.6c0.4,0.7,0.6,1.3,0.6,2c0,0.6-0.2,1-0.7,1.2
							c-0.4,0.2-1.1,0.3-1.9,0.3h-6c0,0.6,0.1,1.1,0.4,1.5c0.3,0.4,0.6,0.8,1.1,1c0.5,0.2,0.9,0.3,1.5,0.3c0.4,0,0.7,0,1-0.1
							c0.3-0.1,0.6-0.2,0.9-0.3c0.3-0.2,0.5-0.3,0.8-0.5 M-4042.1,2553.7h5.5c-0.1-0.9-0.4-1.5-0.8-1.9c-0.5-0.4-1.1-0.6-1.9-0.6
							s-1.4,0.2-1.9,0.6C-4041.7,2552.2-4042,2552.8-4042.1,2553.7z"/>
					</g>
				</g>
			</g>
		</g>
	</g>
</g>
<g class="st3">
	<path class="st0" d="M-3971.1,2533.4h-8v-3.9h8v-0.6c0-2.9-1.9-3.3-5-3.3c-1.7,0-3.1,0.4-4.8,1.1l-0.9-4.1c2-0.8,4.7-1.4,7.2-1.4
		c5.9,0,10,2.7,10,8.9v3c0,6.1-4.2,8.8-10,8.8c-2.5,0-5.3-0.6-7.4-1.4l0.9-4.1c1.8,0.6,3.3,1.1,5,1.1c3.1,0,5-0.6,5-3.6V2533.4z"/>
	<path class="st0" d="M-3953.7,2530.2h0.3l6.1-8.6h7.4l-7.6,9.5l7.7,10.3h-7.2l-6.4-9.7h-0.2v9.7h-6.4v-19.9h6.4V2530.2z"/>
	<path class="st0" d="M-3921.7,2540.6c-2.1,0.8-5.1,1.2-6.7,1.2c-5.8,0-10.1-2.7-10.1-8.8v-3c0-5.5,4.4-8.9,10.1-8.9
		c1.6,0,4.6,0.4,6.7,1.3l-0.9,4.5c-0.8-0.4-3.1-1.1-4.5-1.1c-3.1,0-4.8,1.2-4.8,4.7v2c0,3.5,1.6,4.6,4.8,4.6c1.7,0,2.7-0.4,4.5-1
		L-3921.7,2540.6z"/>
	<path class="st0" d="M-3918.1,2541.4v-19.9h20.5v19.9h-6.4v-15.6h-7.8v15.6H-3918.1z"/>
	<path class="st0" d="M-3892.4,2549.4v-27.8h6.4v1.4c1-0.6,3-1.9,6-1.9c4.9,0,7.7,2.9,7.7,10.5c0,7.5-2.7,10.1-7.7,10.1
		c-3,0-4.6-1-6-1.5v9.3H-3892.4z M-3886.1,2526.4v10.1c0.8,0.3,1.9,0.8,3.3,0.8c2.1,0,4-1.2,4-5.8c0-4.7-2.1-5.8-4.5-5.8
		C-3884.5,2525.7-3885.4,2526.1-3886.1,2526.4z"/>
	<path class="st0" d="M-3849.4,2540.8c-2.5,0.6-5.5,1.1-8.9,1.1c-5.2,0-10.2-1.6-10.2-8.1v-3.3c0-6.2,3.1-9.3,9.9-9.3
		c5,0,9.7,1.7,9.7,7.9v3.9h-13.2v1.2c0,3.1,2,3.4,4.5,3.4c2.1,0,5.6-0.5,7.5-1L-3849.4,2540.8z M-3862.1,2529.7h7.3v-1
		c0-2.9-1.4-3.7-3.8-3.7s-3.5,0.9-3.5,3.9V2529.7z"/>
	<path class="st0" d="M-3828.4,2540.6c-2.1,0.8-5.1,1.2-6.7,1.2c-5.8,0-10.1-2.7-10.1-8.8v-3c0-5.5,4.4-8.9,10.1-8.9
		c1.6,0,4.6,0.4,6.7,1.3l-0.9,4.5c-0.8-0.4-3.1-1.1-4.5-1.1c-3.1,0-4.8,1.2-4.8,4.7v2c0,3.5,1.6,4.6,4.8,4.6c1.7,0,2.7-0.4,4.5-1
		L-3828.4,2540.6z"/>
	<path class="st0" d="M-3808.7,2540.6c-2.1,0.8-5.1,1.2-6.7,1.2c-5.8,0-10.1-2.7-10.1-8.8v-3c0-5.5,4.4-8.9,10.1-8.9
		c1.6,0,4.6,0.4,6.7,1.3l-0.9,4.5c-0.8-0.4-3.1-1.1-4.5-1.1c-3.1,0-4.8,1.2-4.8,4.7v2c0,3.5,1.6,4.6,4.8,4.6c1.7,0,2.7-0.4,4.5-1
		L-3808.7,2540.6z"/>
</g>
<g class="st3">
	<path class="st4" d="M-3974.8,2569.8h0.3l6.1-8.6h7.4l-7.6,9.5l7.7,10.3h-7.2l-6.4-9.7h-0.2v9.7h-6.4v-19.9h6.4V2569.8z"/>
	<path class="st4" d="M-3958.2,2562c1.4-0.4,4.8-1.2,8.3-1.2c6.4,0,9.5,2.2,9.5,7.4v12.8h-6.4v-1.4c-1.2,0.9-3.4,1.7-6,1.7
		c-4.2,0-6.4-1.9-6.4-6.1c0-4.1,2.7-5.6,7.4-5.6h5v-1.7c0-2.1-0.8-2.9-3.5-2.9c-2.2,0-5.6,0.6-7.3,1L-3958.2,2562z M-3946.8,2576.8
		v-3.8h-3.1c-1.9,0-2.8,1-2.8,2.1c0,1.7,0.9,2.4,3.1,2.4C-3948.7,2577.6-3947.4,2577.1-3946.8,2576.8z"/>
	<path class="st4" d="M-3919.1,2580.2c-2.1,0.8-5.1,1.2-6.7,1.2c-5.8,0-10.1-2.7-10.1-8.8v-3c0-5.5,4.4-8.9,10.1-8.9
		c1.6,0,4.6,0.4,6.7,1.3l-0.9,4.5c-0.8-0.4-3.1-1.1-4.5-1.1c-3.1,0-4.8,1.2-4.8,4.7v2c0,3.5,1.6,4.6,4.8,4.6c1.7,0,2.7-0.4,4.5-1
		L-3919.1,2580.2z"/>
	<path class="st4" d="M-3899.3,2580.2c-2.1,0.8-5.1,1.2-6.7,1.2c-5.8,0-10.1-2.7-10.1-8.8v-3c0-5.5,4.4-8.9,10.1-8.9
		c1.6,0,4.6,0.4,6.7,1.3l-0.9,4.5c-0.8-0.4-3.1-1.1-4.5-1.1c-3.1,0-4.8,1.2-4.8,4.7v2c0,3.5,1.6,4.6,4.8,4.6c1.7,0,2.7-0.4,4.5-1
		L-3899.3,2580.2z"/>
	<path class="st4" d="M-3895.4,2562c1.4-0.4,4.8-1.2,8.3-1.2c6.4,0,9.5,2.2,9.5,7.4v12.8h-6.4v-1.4c-1.2,0.9-3.4,1.7-6,1.7
		c-4.2,0-6.4-1.9-6.4-6.1c0-4.1,2.7-5.6,7.4-5.6h5v-1.7c0-2.1-0.8-2.9-3.5-2.9c-2.2,0-5.6,0.6-7.3,1L-3895.4,2562z M-3884,2576.8
		v-3.8h-3.1c-1.9,0-2.8,1-2.8,2.1c0,1.7,0.9,2.4,3.1,2.4C-3885.9,2577.6-3884.6,2577.1-3884,2576.8z"/>
</g>
</svg>
